<svg version="1.1" id="Layer_1" xmlns="http://www.w3.org/2000/svg" xmlns:xlink="http://www.w3.org/1999/xlink" x="0px" y="0px"
	 width="100%" viewBox="0 0 2000 2000" enable-background="new 0 0 2000 2000" xml:space="preserve">
<path fill="#000000" opacity="1.000000" stroke="none" 
	d="
M1115.000000,2001.000000 
	C743.333313,2001.000000 372.166656,2001.000000 1.000000,2001.000000 
	C1.000000,1334.333374 1.000000,667.666687 1.000000,1.000000 
	C667.666687,1.000000 1334.333374,1.000000 2001.000000,1.000000 
	C2001.000000,667.666687 2001.000000,1334.333374 2001.000000,2001.000000 
	C1705.833374,2001.000000 1410.666626,2001.000000 1115.000000,2001.000000 
M200.054214,1040.896484 
	C200.103653,1063.251587 200.153076,1085.606812 200.044540,1108.892456 
	C200.078445,1127.286865 200.112350,1145.681396 200.046936,1164.998901 
	C200.046936,1190.250366 200.046936,1215.501709 200.046936,1240.999268 
	C202.085419,1240.999268 203.404236,1240.999146 204.723053,1240.999146 
	C263.385681,1240.996582 322.051300,1241.309937 380.708832,1240.762207 
	C394.808014,1240.630615 409.129272,1238.778076 422.920074,1235.759766 
	C469.787903,1225.501831 507.918427,1200.687378 537.143555,1162.856079 
	C564.969116,1126.836426 577.266663,1085.172485 577.696838,1040.031250 
	C577.809326,1028.229858 575.642395,1016.357788 573.962036,1004.598145 
	C570.319885,979.109314 561.071472,955.629883 547.363281,933.908997 
	C531.584106,908.906555 511.678925,887.917542 486.117706,872.755432 
	C477.040649,867.371216 467.734772,862.159485 458.009033,858.136536 
	C446.001587,853.169800 433.447571,849.524475 420.531097,845.084167 
	C419.680298,845.076904 418.829468,845.069641 417.567078,844.679932 
	C417.044922,844.538147 416.522797,844.396362 415.154877,844.060059 
	C395.110382,840.713135 374.890900,840.945862 354.668640,840.984497 
	C314.254578,841.061768 273.840271,840.996216 233.426071,841.014893 
	C222.618942,841.019897 211.811829,841.115723 200.500595,841.133179 
	C200.399597,841.420044 200.298615,841.706848 200.077530,842.924988 
	C200.068100,864.028870 200.031906,885.132812 200.055801,906.236694 
	C200.088165,934.815552 200.166641,963.394470 200.060730,992.901367 
	C200.111465,1008.589905 200.162186,1024.278442 200.054214,1040.896484 
M635.125427,1057.807617 
	C633.804626,1066.981445 631.304504,1076.168945 631.410217,1085.326416 
	C631.625732,1104.011475 633.378723,1122.625854 639.870544,1140.476807 
	C659.480103,1194.397949 697.125610,1227.970947 753.087769,1240.577515 
	C767.637939,1243.855103 782.450378,1245.291382 797.499207,1243.040771 
	C811.912720,1240.885376 826.223267,1238.589600 839.708191,1232.778931 
	C846.029297,1230.055298 852.289917,1227.190918 859.024292,1224.191650 
	C859.024292,1228.541260 859.236206,1232.363647 858.963379,1236.151001 
	C858.700867,1239.794800 859.825378,1241.083374 863.670776,1241.055054 
	C886.165527,1240.889160 908.663086,1240.868652 931.157349,1241.067017 
	C935.415222,1241.104492 936.097839,1239.356445 936.067993,1235.723145 
	C935.651245,1184.927490 935.355103,1134.130737 934.974487,1083.334717 
	C934.860352,1068.101440 931.296875,1053.524048 926.008911,1039.343262 
	C913.711975,1006.366272 892.685852,980.559692 862.620544,962.104553 
	C841.765320,949.303040 819.076782,942.001770 794.823547,940.255798 
	C774.860596,938.818726 755.294250,941.404724 736.074463,947.782959 
	C705.865967,957.807800 681.341858,975.423401 662.145630,1000.548645 
	C649.252991,1017.423279 640.753540,1036.505981 635.125427,1057.807617 
M1249.920166,846.655273 
	C1249.920166,844.888550 1249.920166,843.121826 1249.920166,841.259521 
	C1223.671143,841.259521 1198.088013,841.259521 1172.329956,841.259521 
	C1172.329956,974.549988 1172.329956,1107.581299 1172.329956,1240.569824 
	C1198.335083,1240.569824 1224.032837,1240.569824 1250.199951,1240.569824 
	C1250.199951,1185.627563 1250.199951,1131.114136 1250.199951,1075.676514 
	C1257.837769,1085.422974 1264.829224,1094.376953 1271.855225,1103.303955 
	C1288.223267,1124.100830 1304.640015,1144.859497 1320.977661,1165.680298 
	C1339.866577,1189.752808 1358.646606,1213.911255 1377.645752,1237.896362 
	C1378.928467,1239.515747 1381.648926,1240.854004 1383.711304,1240.868774 
	C1410.871582,1241.064575 1438.033813,1241.004150 1465.195557,1240.982178 
	C1466.394775,1240.981201 1467.593628,1240.736816 1469.276733,1240.552979 
	C1464.735107,1234.695557 1460.629395,1229.333008 1456.453247,1224.025879 
	C1437.737427,1200.241455 1418.964355,1176.501953 1400.282959,1152.690552 
	C1380.074829,1126.933350 1359.989258,1101.079712 1339.711060,1075.377930 
	C1337.789917,1072.942871 1338.175903,1071.583008 1339.927734,1069.480835 
	C1352.857910,1053.964966 1365.721069,1038.392700 1378.539551,1022.784241 
	C1396.509155,1000.903687 1414.431641,978.984375 1432.351318,957.062927 
	C1436.169067,952.392517 1439.887573,947.640930 1444.328003,942.079956 
	C1441.455322,942.079956 1439.846680,942.079956 1438.238037,942.079956 
	C1412.576050,942.079956 1386.912720,942.205872 1361.253052,941.962524 
	C1356.696289,941.919312 1353.381714,942.868225 1350.800537,946.696838 
	C1348.956177,949.432434 1346.679565,951.877747 1344.579956,954.439636 
	C1331.670044,970.191772 1318.744995,985.931580 1305.845825,1001.692505 
	C1294.203735,1015.917603 1282.620850,1030.191406 1270.947632,1044.390991 
	C1264.273193,1052.509888 1257.470459,1060.523315 1249.920166,1069.546631 
	C1249.920166,994.767761 1249.920166,921.194214 1249.920166,846.655273 
M1654.407349,1166.054199 
	C1643.749512,1165.734741 1633.210938,1164.276855 1623.640625,1159.481079 
	C1596.731934,1145.996948 1581.998047,1124.440186 1581.921143,1093.869873 
	C1581.801636,1046.372925 1581.893433,998.875366 1581.884399,951.378052 
	C1581.883179,944.914490 1581.166504,944.178833 1574.758911,944.172729 
	C1553.760132,944.152710 1532.761108,944.136719 1511.762573,944.207825 
	C1509.561523,944.215332 1507.362427,944.811523 1505.185059,945.131287 
	C1505.114868,946.645447 1505.043213,947.469360 1505.043335,948.293213 
	C1505.047852,999.123596 1504.893188,1049.954834 1505.168579,1100.783936 
	C1505.251343,1116.073853 1508.558838,1130.970703 1513.930908,1145.316772 
	C1525.781982,1176.963745 1545.937500,1202.036011 1574.545288,1219.969604 
	C1595.307617,1232.985107 1617.912354,1240.463135 1642.638184,1242.226562 
	C1663.053101,1243.682495 1682.732544,1241.080566 1701.755371,1234.381470 
	C1726.231567,1225.761719 1747.385376,1211.717285 1764.515015,1192.003052 
	C1788.691162,1164.179199 1801.455322,1131.744873 1801.829956,1094.951294 
	C1802.318481,1046.958984 1801.954590,998.957947 1801.948730,950.960693 
	C1801.947998,944.722046 1801.420654,944.180542 1795.060669,944.173706 
	C1774.228516,944.151367 1753.396362,944.157288 1732.564209,944.169189 
	C1725.038330,944.173523 1725.072388,944.195374 1725.028809,951.525879 
	C1724.728516,1002.005188 1724.644043,1052.487671 1723.956543,1102.961792 
	C1723.758179,1117.530640 1716.955811,1130.091797 1707.532104,1140.897827 
	C1693.804443,1156.638916 1676.101562,1164.653809 1654.407349,1166.054199 
M992.018005,983.994751 
	C992.082153,1004.434143 992.237244,1024.873779 992.189697,1045.312866 
	C992.113281,1078.137451 991.869141,1110.961670 991.760376,1143.786255 
	C991.682678,1167.252686 991.624512,1190.719849 991.752686,1214.185547 
	C991.784241,1219.964111 992.990601,1225.315552 997.970520,1229.506348 
	C1006.225342,1236.452881 1015.986084,1240.056396 1026.160645,1241.821045 
	C1048.477173,1245.691528 1070.446045,1246.041870 1091.350220,1234.399658 
	C1101.903687,1228.522095 1105.998535,1223.988647 1105.895142,1212.184448 
	C1105.735596,1193.978638 1105.482178,1175.772461 1105.479492,1157.566528 
	C1105.474731,1124.421387 1105.674438,1091.276245 1105.696899,1058.131104 
	C1105.720703,1022.962769 1105.742798,987.793518 1105.460938,952.627075 
	C1105.427612,948.469727 1104.207153,943.935425 1102.246582,940.265259 
	C1098.797974,933.809692 1094.336792,927.896790 1090.330078,921.736877 
	C1088.202148,918.465454 1086.265381,915.062500 1084.013916,911.880432 
	C1080.940552,907.536865 1077.601562,903.382263 1074.469116,899.079102 
	C1072.453613,896.310425 1070.561035,893.449097 1068.690430,890.579041 
	C1064.480103,884.119141 1060.542358,877.466248 1056.041382,871.217651 
	C1053.774414,868.070496 1049.616211,865.621826 1046.214966,867.930664 
	C1041.953491,870.823608 1038.343384,875.027527 1035.291626,879.269531 
	C1030.669922,885.693542 1026.831299,892.676453 1022.547119,899.349365 
	C1019.439697,904.189575 1016.196655,908.945068 1012.923523,913.675720 
	C1010.887146,916.618958 1008.490784,919.325928 1006.598083,922.352844 
	C1003.893188,926.678772 1002.049011,931.652466 998.846619,935.531616 
	C994.165039,941.202515 991.864563,947.244751 992.042847,954.559448 
	C992.275085,964.089722 992.101624,973.629883 992.018005,983.994751 
M1019.031921,767.460266 
	C1017.502869,768.991516 1016.047974,770.606140 1014.433044,772.040771 
	C1000.593811,784.334473 998.139160,808.007080 1006.026855,824.053101 
	C1014.965820,842.237549 1033.673096,852.622009 1053.972534,849.846191 
	C1065.204346,848.310242 1074.850098,843.178101 1082.482422,834.251831 
	C1088.450562,827.271851 1091.520386,819.445740 1093.273438,810.562317 
	C1096.515625,794.132263 1088.484131,777.246399 1077.455811,768.358887 
	C1067.555176,760.380066 1056.184937,756.175781 1042.998657,757.908936 
	C1034.353271,759.045166 1026.601196,761.954285 1019.031921,767.460266 
z"/>
<path fill="#0088D6" opacity="1.000000" stroke="none" 
	d="
M635.236877,1057.402344 
	C640.753540,1036.505981 649.252991,1017.423279 662.145630,1000.548645 
	C681.341858,975.423401 705.865967,957.807800 736.074463,947.782959 
	C755.294250,941.404724 774.860596,938.818726 794.823547,940.255798 
	C819.076782,942.001770 841.765320,949.303040 862.620544,962.104553 
	C892.685852,980.559692 913.711975,1006.366272 926.008911,1039.343262 
	C931.296875,1053.524048 934.860352,1068.101440 934.974487,1083.334717 
	C935.355103,1134.130737 935.651245,1184.927490 936.067993,1235.723145 
	C936.097839,1239.356445 935.415222,1241.104492 931.157349,1241.067017 
	C908.663086,1240.868652 886.165527,1240.889160 863.670776,1241.055054 
	C859.825378,1241.083374 858.700867,1239.794800 858.963379,1236.151001 
	C859.236206,1232.363647 859.024292,1228.541260 859.024292,1224.191650 
	C852.289917,1227.190918 846.029297,1230.055298 839.708191,1232.778931 
	C826.223267,1238.589600 811.912720,1240.885376 797.499207,1243.040771 
	C782.450378,1245.291382 767.637939,1243.855103 753.087769,1240.577515 
	C697.125610,1227.970947 659.480103,1194.397949 639.870544,1140.476807 
	C633.378723,1122.625854 631.625732,1104.011475 631.410217,1085.326416 
	C631.304504,1076.168945 633.804626,1066.981445 635.236877,1057.402344 
M714.010620,1119.344971 
	C720.326782,1135.111084 730.722778,1147.560181 745.326965,1156.105469 
	C761.874512,1165.787842 779.470947,1169.335449 798.736145,1165.252563 
	C816.776367,1161.429321 831.562378,1152.551147 842.632324,1138.385864 
	C855.170105,1122.342285 860.848389,1103.887695 858.133118,1083.096558 
	C855.811462,1065.319092 848.759277,1049.836670 835.929199,1037.680420 
	C811.394897,1014.434570 775.701843,1010.056641 746.384216,1026.762451 
	C713.584167,1045.452515 700.893921,1085.349976 714.010620,1119.344971 
z"/>
<path fill="#0088D5" opacity="1.000000" stroke="none" 
	d="
M1249.920166,847.137939 
	C1249.920166,921.194214 1249.920166,994.767761 1249.920166,1069.546631 
	C1257.470459,1060.523315 1264.273193,1052.509888 1270.947632,1044.390991 
	C1282.620850,1030.191406 1294.203735,1015.917603 1305.845825,1001.692505 
	C1318.744995,985.931580 1331.670044,970.191772 1344.579956,954.439636 
	C1346.679565,951.877747 1348.956177,949.432434 1350.800537,946.696838 
	C1353.381714,942.868225 1356.696289,941.919312 1361.253052,941.962524 
	C1386.912720,942.205872 1412.576050,942.079956 1438.238037,942.079956 
	C1439.846680,942.079956 1441.455322,942.079956 1444.328003,942.079956 
	C1439.887573,947.640930 1436.169067,952.392517 1432.351318,957.062927 
	C1414.431641,978.984375 1396.509155,1000.903687 1378.539551,1022.784241 
	C1365.721069,1038.392700 1352.857910,1053.964966 1339.927734,1069.480835 
	C1338.175903,1071.583008 1337.789917,1072.942871 1339.711060,1075.377930 
	C1359.989258,1101.079712 1380.074829,1126.933350 1400.282959,1152.690552 
	C1418.964355,1176.501953 1437.737427,1200.241455 1456.453247,1224.025879 
	C1460.629395,1229.333008 1464.735107,1234.695557 1469.276733,1240.552979 
	C1467.593628,1240.736816 1466.394775,1240.981201 1465.195557,1240.982178 
	C1438.033813,1241.004150 1410.871582,1241.064575 1383.711304,1240.868774 
	C1381.648926,1240.854004 1378.928467,1239.515747 1377.645752,1237.896362 
	C1358.646606,1213.911255 1339.866577,1189.752808 1320.977661,1165.680298 
	C1304.640015,1144.859497 1288.223267,1124.100830 1271.855225,1103.303955 
	C1264.829224,1094.376953 1257.837769,1085.422974 1250.199951,1075.676514 
	C1250.199951,1131.114136 1250.199951,1185.627563 1250.199951,1240.569824 
	C1224.032837,1240.569824 1198.335083,1240.569824 1172.329956,1240.569824 
	C1172.329956,1107.581299 1172.329956,974.549988 1172.329956,841.259521 
	C1198.088013,841.259521 1223.671143,841.259521 1249.920166,841.259521 
	C1249.920166,843.121826 1249.920166,844.888550 1249.920166,847.137939 
z"/>
<path fill="#0088D5" opacity="1.000000" stroke="none" 
	d="
M1654.869995,1166.049316 
	C1676.101562,1164.653809 1693.804443,1156.638916 1707.532104,1140.897827 
	C1716.955811,1130.091797 1723.758179,1117.530640 1723.956543,1102.961792 
	C1724.644043,1052.487671 1724.728516,1002.005188 1725.028809,951.525879 
	C1725.072388,944.195374 1725.038330,944.173523 1732.564209,944.169189 
	C1753.396362,944.157288 1774.228516,944.151367 1795.060669,944.173706 
	C1801.420654,944.180542 1801.947998,944.722046 1801.948730,950.960693 
	C1801.954590,998.957947 1802.318481,1046.958984 1801.829956,1094.951294 
	C1801.455322,1131.744873 1788.691162,1164.179199 1764.515015,1192.003052 
	C1747.385376,1211.717285 1726.231567,1225.761719 1701.755371,1234.381470 
	C1682.732544,1241.080566 1663.053101,1243.682495 1642.638184,1242.226562 
	C1617.912354,1240.463135 1595.307617,1232.985107 1574.545288,1219.969604 
	C1545.937500,1202.036011 1525.781982,1176.963745 1513.930908,1145.316772 
	C1508.558838,1130.970703 1505.251343,1116.073853 1505.168579,1100.783936 
	C1504.893188,1049.954834 1505.047852,999.123596 1505.043335,948.293213 
	C1505.043213,947.469360 1505.114868,946.645447 1505.185059,945.131287 
	C1507.362427,944.811523 1509.561523,944.215332 1511.762573,944.207825 
	C1532.761108,944.136719 1553.760132,944.152710 1574.758911,944.172729 
	C1581.166504,944.178833 1581.883179,944.914490 1581.884399,951.378052 
	C1581.893433,998.875366 1581.801636,1046.372925 1581.921143,1093.869873 
	C1581.998047,1124.440186 1596.731934,1145.996948 1623.640625,1159.481079 
	C1633.210938,1164.276855 1643.749512,1165.734741 1654.869995,1166.049316 
z"/>
<path fill="#0086D3" opacity="1.000000" stroke="none" 
	d="
M992.060364,983.580322 
	C992.101624,973.629883 992.275085,964.089722 992.042847,954.559448 
	C991.864563,947.244751 994.165039,941.202515 998.846619,935.531616 
	C1002.049011,931.652466 1003.893188,926.678772 1006.598083,922.352844 
	C1008.490784,919.325928 1010.887146,916.618958 1012.923523,913.675720 
	C1016.196655,908.945068 1019.439697,904.189575 1022.547119,899.349365 
	C1026.831299,892.676453 1030.669922,885.693542 1035.291626,879.269531 
	C1038.343384,875.027527 1041.953491,870.823608 1046.214966,867.930664 
	C1049.616211,865.621826 1053.774414,868.070496 1056.041382,871.217651 
	C1060.542358,877.466248 1064.480103,884.119141 1068.690430,890.579041 
	C1070.561035,893.449097 1072.453613,896.310425 1074.469116,899.079102 
	C1077.601562,903.382263 1080.940552,907.536865 1084.013916,911.880432 
	C1086.265381,915.062500 1088.202148,918.465454 1090.330078,921.736877 
	C1094.336792,927.896790 1098.797974,933.809692 1102.246582,940.265259 
	C1104.207153,943.935425 1105.427612,948.469727 1105.460938,952.627075 
	C1105.742798,987.793518 1105.720703,1022.962769 1105.696899,1058.131104 
	C1105.674438,1091.276245 1105.474731,1124.421387 1105.479492,1157.566528 
	C1105.482178,1175.772461 1105.735596,1193.978638 1105.895142,1212.184448 
	C1105.998535,1223.988647 1101.903687,1228.522095 1091.350220,1234.399658 
	C1070.446045,1246.041870 1048.477173,1245.691528 1026.160645,1241.821045 
	C1015.986084,1240.056396 1006.225342,1236.452881 997.970520,1229.506348 
	C992.990601,1225.315552 991.784241,1219.964111 991.752686,1214.185547 
	C991.624512,1190.719849 991.682678,1167.252686 991.760376,1143.786255 
	C991.869141,1110.961670 992.113281,1078.137451 992.189697,1045.312866 
	C992.237244,1024.873779 992.082153,1004.434143 992.060364,983.580322 
M1074.117920,934.291260 
	C1071.199707,929.725830 1068.281616,925.160400 1065.336670,920.553040 
	C1064.485474,920.658386 1063.767456,920.578491 1063.211670,920.841370 
	C1054.417847,925.001221 1045.535522,925.721680 1036.484009,921.690430 
	C1032.299194,919.826660 1030.772461,923.354187 1029.106323,925.748474 
	C1025.969238,930.256653 1023.600952,935.325317 1020.267090,939.664734 
	C1016.026611,945.184265 1016.870056,947.932007 1023.523315,950.336121 
	C1034.489624,954.298706 1045.751953,955.633545 1057.223633,954.543823 
	C1065.991455,953.710938 1074.433105,951.405029 1081.469360,945.339966 
	C1079.057251,941.652649 1076.831421,938.250000 1074.117920,934.291260 
z"/>
<path fill="#0088D6" opacity="1.000000" stroke="none" 
	d="
M421.129730,845.308167 
	C433.447571,849.524475 446.001587,853.169800 458.009033,858.136536 
	C467.734772,862.159485 477.040649,867.371216 486.117706,872.755432 
	C511.678925,887.917542 531.584106,908.906555 547.363281,933.908997 
	C561.071472,955.629883 570.319885,979.109314 573.962036,1004.598145 
	C575.642395,1016.357788 577.809326,1028.229858 577.696838,1040.031250 
	C577.266663,1085.172485 564.969116,1126.836426 537.143555,1162.856079 
	C507.918427,1200.687378 469.787903,1225.501831 422.920074,1235.759766 
	C409.129272,1238.778076 394.808014,1240.630615 380.708832,1240.762207 
	C322.051300,1241.309937 263.385681,1240.996582 204.723053,1240.999146 
	C203.404236,1240.999146 202.085419,1240.999268 200.046936,1240.999268 
	C200.046936,1215.501709 200.046936,1190.250366 200.554779,1164.502197 
	C228.447647,1163.994141 255.832718,1164.005249 283.217560,1163.930176 
	C285.478760,1163.924072 287.738373,1163.334351 290.466797,1163.041748 
	C325.631653,1162.822876 360.328430,1162.577759 395.253510,1162.478027 
	C396.403473,1162.243286 397.325134,1161.863281 398.597412,1161.465942 
	C399.649506,1161.421265 400.350922,1161.393921 401.366211,1161.517334 
	C405.445892,1161.050293 409.264984,1160.657104 412.969208,1159.779175 
	C447.552277,1151.582520 476.691925,1134.406128 500.026123,1107.386475 
	C512.715576,1092.692871 521.856445,1076.066162 528.934326,1057.737061 
	C536.939209,1036.678589 540.026489,1015.256042 538.551880,992.741333 
	C538.408936,989.843811 538.351135,987.346924 538.008423,984.889771 
	C536.035767,970.744629 533.707153,956.685303 527.102783,943.387756 
	C522.392334,933.983521 517.716553,924.943481 512.955994,915.564819 
	C505.580780,906.150024 498.290405,897.073853 490.798126,887.734131 
	C488.977173,886.057373 487.330536,884.674500 485.743286,883.226440 
	C468.243652,867.261108 448.204681,855.735046 425.617004,848.572144 
	C423.944427,848.041748 422.617401,846.421631 421.129730,845.308167 
z"/>
<path fill="#0089CD" opacity="1.000000" stroke="none" 
	d="
M420.830414,845.196167 
	C422.617401,846.421631 423.944427,848.041748 425.617004,848.572144 
	C448.204681,855.735046 468.243652,867.261108 485.743286,883.226440 
	C487.330536,884.674500 488.977173,886.057373 490.424438,887.820801 
	C488.170898,888.729309 486.047791,889.166809 484.013733,889.864075 
	C456.726746,899.217957 429.445160,908.587830 402.196991,918.053833 
	C400.957001,918.484619 400.045685,919.861511 398.575562,920.837646 
	C389.967438,919.918579 381.774750,918.244324 373.560791,918.132507 
	C347.403900,917.776184 321.239136,917.997314 295.077393,918.011108 
	C293.462646,918.011963 291.847961,918.149414 289.618683,918.251343 
	C289.618683,933.390137 289.618683,948.182190 289.242828,962.989441 
	C286.619934,963.603027 284.325287,964.063599 282.133087,964.820801 
	C257.736816,973.248047 233.368591,981.756775 208.954910,990.132996 
	C206.163208,991.090820 203.140778,991.376160 200.225327,991.973328 
	C200.166641,963.394470 200.088165,934.815552 200.055801,906.236694 
	C200.031906,885.132812 200.068100,864.028870 200.287048,842.337280 
	C200.686920,841.574707 200.856308,841.381470 201.004715,841.169922 
	C211.811829,841.115723 222.618942,841.019897 233.426071,841.014893 
	C273.840271,840.996216 314.254578,841.061768 354.668640,840.984497 
	C374.890900,840.945862 395.110382,840.713135 415.675385,844.350037 
	C416.790161,844.780823 417.384399,844.921570 417.978668,845.062378 
	C418.829468,845.069641 419.680298,845.076904 420.830414,845.196167 
z"/>
<path fill="#0088D6" opacity="1.000000" stroke="none" 
	d="
M1019.293945,767.212585 
	C1026.601196,761.954285 1034.353271,759.045166 1042.998657,757.908936 
	C1056.184937,756.175781 1067.555176,760.380066 1077.455811,768.358887 
	C1088.484131,777.246399 1096.515625,794.132263 1093.273438,810.562317 
	C1091.520386,819.445740 1088.450562,827.271851 1082.482422,834.251831 
	C1074.850098,843.178101 1065.204346,848.310242 1053.972534,849.846191 
	C1033.673096,852.622009 1014.965820,842.237549 1006.026855,824.053101 
	C998.139160,808.007080 1000.593811,784.334473 1014.433044,772.040771 
	C1016.047974,770.606140 1017.502869,768.991516 1019.293945,767.212585 
z"/>
<path fill="#005B89" opacity="1.000000" stroke="none" 
	d="
M289.998718,1163.015625 
	C287.738373,1163.334351 285.478760,1163.924072 283.217560,1163.930176 
	C255.832718,1164.005249 228.447647,1163.994141 200.604431,1164.040527 
	C200.112350,1145.681396 200.078445,1127.286865 200.509491,1108.413086 
	C203.228958,1107.372803 205.541550,1106.980347 207.729172,1106.225586 
	C232.297729,1097.749146 256.836578,1089.186401 281.416626,1080.743652 
	C284.059021,1079.836060 286.910858,1079.538208 289.755005,1079.421387 
	C289.895905,1107.595459 289.947327,1135.305542 289.998718,1163.015625 
z"/>
<path fill="#006CA2" opacity="1.000000" stroke="none" 
	d="
M289.665588,1078.957520 
	C286.910858,1079.538208 284.059021,1079.836060 281.416626,1080.743652 
	C256.836578,1089.186401 232.297729,1097.749146 207.729172,1106.225586 
	C205.541550,1106.980347 203.228958,1107.372803 200.588470,1107.947754 
	C200.153076,1085.606812 200.103653,1063.251587 200.526443,1040.428711 
	C202.310730,1039.775391 203.694443,1039.797363 204.924149,1039.372925 
	C224.125824,1032.745361 243.276031,1025.967285 262.507965,1019.429382 
	C271.475159,1016.381042 280.591888,1013.772461 289.735474,1011.427002 
	C289.775269,1034.245483 289.720428,1056.601562 289.665588,1078.957520 
z"/>
<path fill="#007CBA" opacity="1.000000" stroke="none" 
	d="
M289.640869,1010.964539 
	C280.591888,1013.772461 271.475159,1016.381042 262.507965,1019.429382 
	C243.276031,1025.967285 224.125824,1032.745361 204.924149,1039.372925 
	C203.694443,1039.797363 202.310730,1039.775391 200.605804,1039.964111 
	C200.162186,1024.278442 200.111465,1008.589905 200.143036,992.437378 
	C203.140778,991.376160 206.163208,991.090820 208.954910,990.132996 
	C233.368591,981.756775 257.736816,973.248047 282.133087,964.820801 
	C284.325287,964.063599 286.619934,963.603027 289.339417,963.450928 
	C289.754852,979.586304 289.697845,995.275391 289.640869,1010.964539 
z"/>
<path fill="#0088D6" opacity="1.000000" stroke="none" 
	d="
M417.772888,844.871155 
	C417.384399,844.921570 416.790161,844.780823 416.098267,844.447266 
	C416.522797,844.396362 417.044922,844.538147 417.772888,844.871155 
z"/>
<path fill="#007CBA" opacity="1.000000" stroke="none" 
	d="
M200.752655,841.151489 
	C200.856308,841.381470 200.686920,841.574707 200.347092,841.871643 
	C200.298615,841.706848 200.399597,841.420044 200.752655,841.151489 
z"/>
<path fill="#000000" opacity="1.000000" stroke="none" 
	d="
M713.965088,1118.952637 
	C700.893921,1085.349976 713.584167,1045.452515 746.384216,1026.762451 
	C775.701843,1010.056641 811.394897,1014.434570 835.929199,1037.680420 
	C848.759277,1049.836670 855.811462,1065.319092 858.133118,1083.096558 
	C860.848389,1103.887695 855.170105,1122.342285 842.632324,1138.385864 
	C831.562378,1152.551147 816.776367,1161.429321 798.736145,1165.252563 
	C779.470947,1169.335449 761.874512,1165.787842 745.326965,1156.105469 
	C730.722778,1147.560181 720.326782,1135.111084 713.965088,1118.952637 
z"/>
<path fill="#000305" opacity="1.000000" stroke="none" 
	d="
M1074.361816,934.569336 
	C1076.831421,938.250000 1079.057251,941.652649 1081.469360,945.339966 
	C1074.433105,951.405029 1065.991455,953.710938 1057.223633,954.543823 
	C1045.751953,955.633545 1034.489624,954.298706 1023.523315,950.336121 
	C1016.870056,947.932007 1016.026611,945.184265 1020.267090,939.664734 
	C1023.600952,935.325317 1025.969238,930.256653 1029.106323,925.748474 
	C1030.772461,923.354187 1032.299194,919.826660 1036.484009,921.690430 
	C1045.535522,925.721680 1054.417847,925.001221 1063.211670,920.841370 
	C1063.767456,920.578491 1064.485474,920.658386 1065.336670,920.553040 
	C1068.281616,925.160400 1071.199707,929.725830 1074.361816,934.569336 
z"/>
<path fill="#000000" opacity="1.000000" stroke="none" 
	d="
M289.735504,1011.427002 
	C289.697845,995.275391 289.754852,979.586304 289.715271,963.435669 
	C289.618683,948.182190 289.618683,933.390137 289.618683,918.251343 
	C291.847961,918.149414 293.462646,918.011963 295.077393,918.011108 
	C321.239136,917.997314 347.403900,917.776184 373.560791,918.132507 
	C381.774750,918.244324 389.967438,919.918579 398.952942,920.933044 
	C404.112122,922.405762 408.780243,923.261047 412.805756,925.353027 
	C422.298126,930.286072 431.484253,935.808411 440.967773,941.384033 
	C448.507599,949.441406 455.873871,957.207153 463.305115,965.301941 
	C473.212128,979.046753 480.076630,993.861084 484.197418,1010.358032 
	C485.465698,1019.689697 487.704376,1028.624512 487.745331,1037.569336 
	C487.794739,1048.362793 485.979919,1059.164673 484.695740,1070.220215 
	C479.620514,1090.106201 470.768951,1107.735107 458.052338,1123.399902 
	C445.875885,1138.399536 430.587708,1149.235229 412.800629,1156.624146 
	C408.900818,1158.244141 404.969299,1159.787720 401.052368,1161.366455 
	C400.350922,1161.393921 399.649506,1161.421265 398.248688,1161.336548 
	C396.707947,1161.593872 395.866577,1161.963379 395.025208,1162.332764 
	C360.328430,1162.577759 325.631653,1162.822876 290.466797,1163.041748 
	C289.947327,1135.305542 289.895905,1107.595459 289.755035,1079.421387 
	C289.720428,1056.601562 289.775269,1034.245483 289.735504,1011.427002 
z"/>
<path fill="#006A9F" opacity="1.000000" stroke="none" 
	d="
M484.194153,1009.965698 
	C480.076630,993.861084 473.212128,979.046753 463.701599,965.297424 
	C470.232666,963.184448 476.523834,961.671021 482.613647,959.573059 
	C497.504547,954.443237 512.302307,949.043213 527.137573,943.751953 
	C533.707153,956.685303 536.035767,970.744629 538.008423,984.889771 
	C538.351135,987.346924 538.408936,989.843811 538.213745,992.760376 
	C522.540588,998.330139 507.268250,1003.511169 491.947113,1008.543823 
	C489.473938,1009.356140 486.783936,1009.508362 484.194153,1009.965698 
z"/>
<path fill="#005B89" opacity="1.000000" stroke="none" 
	d="
M484.197418,1010.358032 
	C486.783936,1009.508362 489.473938,1009.356140 491.947113,1008.543823 
	C507.268250,1003.511169 522.540588,998.330139 538.167297,993.179321 
	C540.026489,1015.256042 536.939209,1036.678589 528.570190,1057.772461 
	C517.635132,1061.582764 507.308472,1065.224487 496.834381,1068.376221 
	C493.062622,1069.511108 488.936432,1069.468262 484.972015,1069.962891 
	C485.979919,1059.164673 487.794739,1048.362793 487.745331,1037.569336 
	C487.704376,1028.624512 485.465698,1019.689697 484.197418,1010.358032 
z"/>
<path fill="#007FBE" opacity="1.000000" stroke="none" 
	d="
M440.794250,941.092407 
	C431.484253,935.808411 422.298126,930.286072 412.805756,925.353027 
	C408.780243,923.261047 404.112122,922.405762 399.358643,920.893066 
	C400.045685,919.861511 400.957001,918.484619 402.196991,918.053833 
	C429.445160,908.587830 456.726746,899.217957 484.013733,889.864075 
	C486.047791,889.166809 488.170898,888.729309 490.626312,888.084351 
	C498.290405,897.073853 505.580780,906.150024 512.687622,915.807495 
	C504.549194,919.310486 496.647186,922.387573 488.628082,925.121277 
	C472.717590,930.545166 456.742584,935.779602 440.794250,941.092407 
z"/>
<path fill="#005077" opacity="1.000000" stroke="none" 
	d="
M484.695740,1070.220215 
	C488.936432,1069.468262 493.062622,1069.511108 496.834381,1068.376221 
	C507.308472,1065.224487 517.635132,1061.582764 528.384155,1058.099365 
	C521.856445,1076.066162 512.715576,1092.692871 500.026123,1107.386475 
	C476.691925,1134.406128 447.552277,1151.582520 412.969208,1159.779175 
	C409.264984,1160.657104 405.445892,1161.050293 401.366211,1161.517334 
	C404.969299,1159.787720 408.900818,1158.244141 412.800629,1156.624146 
	C430.587708,1149.235229 445.875885,1138.399536 458.052338,1123.399902 
	C470.768951,1107.735107 479.620514,1090.106201 484.695740,1070.220215 
z"/>
<path fill="#0075AF" opacity="1.000000" stroke="none" 
	d="
M440.967804,941.384033 
	C456.742584,935.779602 472.717590,930.545166 488.628082,925.121277 
	C496.647186,922.387573 504.549194,919.310486 512.772461,916.145996 
	C517.716553,924.943481 522.392334,933.983521 527.102783,943.387817 
	C512.302307,949.043213 497.504547,954.443237 482.613647,959.573059 
	C476.523834,961.671021 470.232666,963.184448 463.636627,964.968384 
	C455.873871,957.207153 448.507599,949.441406 440.967804,941.384033 
z"/>
<path fill="#005077" opacity="1.000000" stroke="none" 
	d="
M395.253540,1162.478149 
	C395.866577,1161.963379 396.707947,1161.593872 397.898041,1161.353760 
	C397.325134,1161.863281 396.403473,1162.243286 395.253540,1162.478149 
z"/>
</svg>